<svg xmlns="http://www.w3.org/2000/svg" viewBox="0 0 512 512"><defs><linearGradient id="g" x1="0" y1="0" x2="1" y2="1"><stop stop-color="#a3ddff"/><stop offset=".56" stop-color="#508aff"/><stop offset="1" stop-color="#9c83f6"/></linearGradient><linearGradient id="w" x1="0" y1="0" x2="0" y2="1"><stop stop-color="#fff"/><stop offset="1" stop-color="#d9e6ff"/></linearGradient></defs><rect width="512" height="512" rx="112" fill="url(#g)"/><rect x="125" y="144" width="255" height="251" rx="48" fill="url(#w)"/><rect x="125" y="144" width="255" height="82" rx="45" fill="#fff"/><path d="M196 131v43M308 131v43" stroke="url(#w)" stroke-width="28" stroke-linecap="round"/><rect x="151" y="245" width="101" height="61" rx="23" fill="#639fff"/><rect x="265" y="245" width="88" height="61" rx="23" fill="#b3cafa"/><rect x="151" y="318" width="101" height="57" rx="23" fill="#b3cafa"/><rect x="265" y="318" width="88" height="57" rx="23" fill="#639fff"/><path d="m176 275 15 14 28-31" fill="none" stroke="white" stroke-width="13" stroke-linecap="round" stroke-linejoin="round"/><path d="M307 339c-13-18-36 3 0 24 36-21 13-42 0-24" fill="#fff"/><path d="m395 134 11-28m10 61 25-14m-24 48 26 9" stroke="#fff" stroke-width="15" stroke-linecap="round"/></svg>